<svg xmlns="http://www.w3.org/2000/svg" viewBox="0 0 400 170" aria-hidden="true">
  <rect width="400" height="170" fill="#ffffff"/>
  <rect x="24" y="20" width="44" height="32" rx="3" fill="#fff" stroke="#6b6560"/>
  <text x="46" y="42" text-anchor="middle" font-size="7" fill="#6b6560" font-family="Outfit,Segoe UI,sans-serif">sources</text>
  <rect x="24" y="88" width="44" height="28" rx="3" fill="#f6f3ed" stroke="#d4cec4"/>
  <text x="46" y="106" text-anchor="middle" font-size="7" fill="#6b6560" font-family="Outfit,Segoe UI,sans-serif">notes</text>
  <rect x="72" y="88" width="44" height="28" rx="3" fill="#f6f3ed" stroke="#d4cec4"/>
  <text x="94" y="106" text-anchor="middle" font-size="7" fill="#6b6560" font-family="Outfit,Segoe UI,sans-serif">transcripts</text>
  <path d="M128 68 L168 68" stroke="#7a3b2e" stroke-width="2" marker-end="url(#arr-narr-b)"/>
  <rect x="176" y="44" width="72" height="48" rx="8" fill="#2a2724" stroke="#4a6670" stroke-width="2"/>
  <text x="212" y="66" text-anchor="middle" font-family="Consolas,monospace" font-size="11" fill="#ebe6dc">AI</text>
  <text x="212" y="82" text-anchor="middle" font-size="8" fill="#a8a29e" font-family="Outfit,Segoe UI,sans-serif">draft</text>
  <path d="M256 68 L296 68" stroke="#7a3b2e" stroke-width="2"/>
  <rect x="304" y="32" width="88" height="72" rx="4" fill="#fff" stroke="#059669" stroke-width="2"/>
  <line x1="314" y1="50" x2="382" y2="50" stroke="#059669" stroke-width="1" opacity="0.5"/>
  <line x1="314" y1="64" x2="382" y2="64" stroke="#d4cec4"/>
  <line x1="314" y1="78" x2="382" y2="78" stroke="#d4cec4"/>
  <text x="348" y="118" text-anchor="middle" font-size="9" fill="#4a4540" font-family="Outfit,Segoe UI,sans-serif">Your story</text>
  <text x="200" y="155" text-anchor="middle" font-size="10" fill="#7a3b2e" font-weight="600" font-family="Outfit,Segoe UI,sans-serif">I review  then I own it</text>
  <defs>
    <marker id="arr-narr-b" markerWidth="8" markerHeight="8" refX="6" refY="3" orient="auto">
      <path d="M0,0 L6,3 L0,6 Z" fill="#7a3b2e"/>
    </marker>
  </defs>
</svg>
