<svg xmlns="http://www.w3.org/2000/svg" viewBox="0 0 800 800" aria-hidden="true">
<rect width="800" height="800" fill="none"/>
<circle cx="400" cy="400" r="18" fill="#ffffff" stroke="#e0e0e0" stroke-width="1"/>
<path d="M 400.0 374.0 A 26.0 26.0 0 0 1 403.4 374.2 L 411.3 314.1 A 86.7 86.7 0 0 0 400.0 313.3 Z" fill="hsl(0, 52%, 74%)" stroke="#ffffff" stroke-width="0.55"/>
<path d="M 400.0 313.3 A 86.7 86.7 0 0 1 411.3 314.1 L 419.2 253.9 A 147.3 147.3 0 0 0 400.0 252.7 Z" fill="hsl(0, 59%, 66%)" stroke="#ffffff" stroke-width="0.55"/>
<path d="M 400.0 252.7 A 147.3 147.3 0 0 1 419.2 253.9 L 427.1 193.8 A 208.0 208.0 0 0 0 400.0 192.0 Z" fill="hsl(0, 66%, 58%)" stroke="#ffffff" stroke-width="0.55"/>
<path d="M 400.0 192.0 A 208.0 208.0 0 0 1 427.1 193.8 L 435.1 133.6 A 268.7 268.7 0 0 0 400.0 131.3 Z" fill="hsl(0, 73%, 50%)" stroke="#ffffff" stroke-width="0.55"/>
<path d="M 400.0 131.3 A 268.7 268.7 0 0 1 435.1 133.6 L 443.0 73.5 A 329.3 329.3 0 0 0 400.0 70.7 Z" fill="hsl(0, 80%, 42%)" stroke="#ffffff" stroke-width="0.55"/>
<path d="M 400.0 70.7 A 329.3 329.3 0 0 1 443.0 73.5 L 450.9 13.3 A 390.0 390.0 0 0 0 400.0 10.0 Z" fill="hsl(0, 87%, 34%)" stroke="#ffffff" stroke-width="0.55"/>
<path d="M 403.4 374.2 A 26.0 26.0 0 0 1 406.7 374.9 L 422.4 316.3 A 86.7 86.7 0 0 0 411.3 314.1 Z" fill="hsl(8, 52%, 74%)" stroke="#ffffff" stroke-width="0.55"/>
<path d="M 411.3 314.1 A 86.7 86.7 0 0 1 422.4 316.3 L 438.1 257.7 A 147.3 147.3 0 0 0 419.2 253.9 Z" fill="hsl(8, 59%, 66%)" stroke="#ffffff" stroke-width="0.55"/>
<path d="M 419.2 253.9 A 147.3 147.3 0 0 1 438.1 257.7 L 453.8 199.1 A 208.0 208.0 0 0 0 427.1 193.8 Z" fill="hsl(8, 66%, 58%)" stroke="#ffffff" stroke-width="0.55"/>
<path d="M 427.1 193.8 A 208.0 208.0 0 0 1 453.8 199.1 L 469.5 140.5 A 268.7 268.7 0 0 0 435.1 133.6 Z" fill="hsl(8, 73%, 50%)" stroke="#ffffff" stroke-width="0.55"/>
<path d="M 435.1 133.6 A 268.7 268.7 0 0 1 469.5 140.5 L 485.2 81.9 A 329.3 329.3 0 0 0 443.0 73.5 Z" fill="hsl(8, 80%, 42%)" stroke="#ffffff" stroke-width="0.55"/>
<path d="M 443.0 73.5 A 329.3 329.3 0 0 1 485.2 81.9 L 500.9 23.3 A 390.0 390.0 0 0 0 450.9 13.3 Z" fill="hsl(8, 87%, 34%)" stroke="#ffffff" stroke-width="0.55"/>
<path d="M 406.7 374.9 A 26.0 26.0 0 0 1 409.9 376.0 L 433.2 319.9 A 86.7 86.7 0 0 0 422.4 316.3 Z" fill="hsl(15, 52%, 74%)" stroke="#ffffff" stroke-width="0.55"/>
<path d="M 422.4 316.3 A 86.7 86.7 0 0 1 433.2 319.9 L 456.4 263.9 A 147.3 147.3 0 0 0 438.1 257.7 Z" fill="hsl(15, 59%, 66%)" stroke="#ffffff" stroke-width="0.55"/>
<path d="M 438.1 257.7 A 147.3 147.3 0 0 1 456.4 263.9 L 479.6 207.8 A 208.0 208.0 0 0 0 453.8 199.1 Z" fill="hsl(15, 66%, 58%)" stroke="#ffffff" stroke-width="0.55"/>
<path d="M 453.8 199.1 A 208.0 208.0 0 0 1 479.6 207.8 L 502.8 151.8 A 268.7 268.7 0 0 0 469.5 140.5 Z" fill="hsl(15, 73%, 50%)" stroke="#ffffff" stroke-width="0.55"/>
<path d="M 469.5 140.5 A 268.7 268.7 0 0 1 502.8 151.8 L 526.0 95.7 A 329.3 329.3 0 0 0 485.2 81.9 Z" fill="hsl(15, 80%, 42%)" stroke="#ffffff" stroke-width="0.55"/>
<path d="M 485.2 81.9 A 329.3 329.3 0 0 1 526.0 95.7 L 549.2 39.7 A 390.0 390.0 0 0 0 500.9 23.3 Z" fill="hsl(15, 87%, 34%)" stroke="#ffffff" stroke-width="0.55"/>
<path d="M 409.9 376.0 A 26.0 26.0 0 0 1 413.0 377.5 L 443.3 324.9 A 86.7 86.7 0 0 0 433.2 319.9 Z" fill="hsl(22, 52%, 74%)" stroke="#ffffff" stroke-width="0.55"/>
<path d="M 433.2 319.9 A 86.7 86.7 0 0 1 443.3 324.9 L 473.7 272.4 A 147.3 147.3 0 0 0 456.4 263.9 Z" fill="hsl(22, 59%, 66%)" stroke="#ffffff" stroke-width="0.55"/>
<path d="M 456.4 263.9 A 147.3 147.3 0 0 1 473.7 272.4 L 504.0 219.9 A 208.0 208.0 0 0 0 479.6 207.8 Z" fill="hsl(22, 66%, 58%)" stroke="#ffffff" stroke-width="0.55"/>
<path d="M 479.6 207.8 A 208.0 208.0 0 0 1 504.0 219.9 L 534.3 167.3 A 268.7 268.7 0 0 0 502.8 151.8 Z" fill="hsl(22, 73%, 50%)" stroke="#ffffff" stroke-width="0.55"/>
<path d="M 502.8 151.8 A 268.7 268.7 0 0 1 534.3 167.3 L 564.7 114.8 A 329.3 329.3 0 0 0 526.0 95.7 Z" fill="hsl(22, 80%, 42%)" stroke="#ffffff" stroke-width="0.55"/>
<path d="M 526.0 95.7 A 329.3 329.3 0 0 1 564.7 114.8 L 595.0 62.3 A 390.0 390.0 0 0 0 549.2 39.7 Z" fill="hsl(22, 87%, 34%)" stroke="#ffffff" stroke-width="0.55"/>
<path d="M 413.0 377.5 A 26.0 26.0 0 0 1 415.8 379.4 L 452.8 331.2 A 86.7 86.7 0 0 0 443.3 324.9 Z" fill="hsl(30, 52%, 74%)" stroke="#ffffff" stroke-width="0.55"/>
<path d="M 443.3 324.9 A 86.7 86.7 0 0 1 452.8 331.2 L 489.7 283.1 A 147.3 147.3 0 0 0 473.7 272.4 Z" fill="hsl(30, 59%, 66%)" stroke="#ffffff" stroke-width="0.55"/>
<path d="M 473.7 272.4 A 147.3 147.3 0 0 1 489.7 283.1 L 526.6 235.0 A 208.0 208.0 0 0 0 504.0 219.9 Z" fill="hsl(30, 66%, 58%)" stroke="#ffffff" stroke-width="0.55"/>
<path d="M 504.0 219.9 A 208.0 208.0 0 0 1 526.6 235.0 L 563.6 186.9 A 268.7 268.7 0 0 0 534.3 167.3 Z" fill="hsl(30, 73%, 50%)" stroke="#ffffff" stroke-width="0.55"/>
<path d="M 534.3 167.3 A 268.7 268.7 0 0 1 563.6 186.9 L 600.5 138.7 A 329.3 329.3 0 0 0 564.7 114.8 Z" fill="hsl(30, 80%, 42%)" stroke="#ffffff" stroke-width="0.55"/>
<path d="M 564.7 114.8 A 329.3 329.3 0 0 1 600.5 138.7 L 637.4 90.6 A 390.0 390.0 0 0 0 595.0 62.3 Z" fill="hsl(30, 87%, 34%)" stroke="#ffffff" stroke-width="0.55"/>
<path d="M 415.8 379.4 A 26.0 26.0 0 0 1 418.4 381.6 L 461.3 338.7 A 86.7 86.7 0 0 0 452.8 331.2 Z" fill="hsl(38, 52%, 74%)" stroke="#ffffff" stroke-width="0.55"/>
<path d="M 452.8 331.2 A 86.7 86.7 0 0 1 461.3 338.7 L 504.2 295.8 A 147.3 147.3 0 0 0 489.7 283.1 Z" fill="hsl(38, 59%, 66%)" stroke="#ffffff" stroke-width="0.55"/>
<path d="M 489.7 283.1 A 147.3 147.3 0 0 1 504.2 295.8 L 547.1 252.9 A 208.0 208.0 0 0 0 526.6 235.0 Z" fill="hsl(38, 66%, 58%)" stroke="#ffffff" stroke-width="0.55"/>
<path d="M 526.6 235.0 A 208.0 208.0 0 0 1 547.1 252.9 L 590.0 210.0 A 268.7 268.7 0 0 0 563.6 186.9 Z" fill="hsl(38, 73%, 50%)" stroke="#ffffff" stroke-width="0.55"/>
<path d="M 563.6 186.9 A 268.7 268.7 0 0 1 590.0 210.0 L 632.9 167.1 A 329.3 329.3 0 0 0 600.5 138.7 Z" fill="hsl(38, 80%, 42%)" stroke="#ffffff" stroke-width="0.55"/>
<path d="M 600.5 138.7 A 329.3 329.3 0 0 1 632.9 167.1 L 675.8 124.2 A 390.0 390.0 0 0 0 637.4 90.6 Z" fill="hsl(38, 87%, 34%)" stroke="#ffffff" stroke-width="0.55"/>
<path d="M 418.4 381.6 A 26.0 26.0 0 0 1 420.6 384.2 L 468.8 347.2 A 86.7 86.7 0 0 0 461.3 338.7 Z" fill="hsl(45, 52%, 74%)" stroke="#ffffff" stroke-width="0.55"/>
<path d="M 461.3 338.7 A 86.7 86.7 0 0 1 468.8 347.2 L 516.9 310.3 A 147.3 147.3 0 0 0 504.2 295.8 Z" fill="hsl(45, 59%, 66%)" stroke="#ffffff" stroke-width="0.55"/>
<path d="M 504.2 295.8 A 147.3 147.3 0 0 1 516.9 310.3 L 565.0 273.4 A 208.0 208.0 0 0 0 547.1 252.9 Z" fill="hsl(45, 66%, 58%)" stroke="#ffffff" stroke-width="0.55"/>
<path d="M 547.1 252.9 A 208.0 208.0 0 0 1 565.0 273.4 L 613.1 236.4 A 268.7 268.7 0 0 0 590.0 210.0 Z" fill="hsl(45, 73%, 50%)" stroke="#ffffff" stroke-width="0.55"/>
<path d="M 590.0 210.0 A 268.7 268.7 0 0 1 613.1 236.4 L 661.3 199.5 A 329.3 329.3 0 0 0 632.9 167.1 Z" fill="hsl(45, 80%, 42%)" stroke="#ffffff" stroke-width="0.55"/>
<path d="M 632.9 167.1 A 329.3 329.3 0 0 1 661.3 199.5 L 709.4 162.6 A 390.0 390.0 0 0 0 675.8 124.2 Z" fill="hsl(45, 87%, 34%)" stroke="#ffffff" stroke-width="0.55"/>
<path d="M 420.6 384.2 A 26.0 26.0 0 0 1 422.5 387.0 L 475.1 356.7 A 86.7 86.7 0 0 0 468.8 347.2 Z" fill="hsl(52, 52%, 74%)" stroke="#ffffff" stroke-width="0.55"/>
<path d="M 468.8 347.2 A 86.7 86.7 0 0 1 475.1 356.7 L 527.6 326.3 A 147.3 147.3 0 0 0 516.9 310.3 Z" fill="hsl(52, 59%, 66%)" stroke="#ffffff" stroke-width="0.55"/>
<path d="M 516.9 310.3 A 147.3 147.3 0 0 1 527.6 326.3 L 580.1 296.0 A 208.0 208.0 0 0 0 565.0 273.4 Z" fill="hsl(52, 66%, 58%)" stroke="#ffffff" stroke-width="0.55"/>
<path d="M 565.0 273.4 A 208.0 208.0 0 0 1 580.1 296.0 L 632.7 265.7 A 268.7 268.7 0 0 0 613.1 236.4 Z" fill="hsl(52, 73%, 50%)" stroke="#ffffff" stroke-width="0.55"/>
<path d="M 613.1 236.4 A 268.7 268.7 0 0 1 632.7 265.7 L 685.2 235.3 A 329.3 329.3 0 0 0 661.3 199.5 Z" fill="hsl(52, 80%, 42%)" stroke="#ffffff" stroke-width="0.55"/>
<path d="M 661.3 199.5 A 329.3 329.3 0 0 1 685.2 235.3 L 737.7 205.0 A 390.0 390.0 0 0 0 709.4 162.6 Z" fill="hsl(52, 87%, 34%)" stroke="#ffffff" stroke-width="0.55"/>
<path d="M 422.5 387.0 A 26.0 26.0 0 0 1 424.0 390.1 L 480.1 366.8 A 86.7 86.7 0 0 0 475.1 356.7 Z" fill="hsl(60, 52%, 74%)" stroke="#ffffff" stroke-width="0.55"/>
<path d="M 475.1 356.7 A 86.7 86.7 0 0 1 480.1 366.8 L 536.1 343.6 A 147.3 147.3 0 0 0 527.6 326.3 Z" fill="hsl(60, 59%, 66%)" stroke="#ffffff" stroke-width="0.55"/>
<path d="M 527.6 326.3 A 147.3 147.3 0 0 1 536.1 343.6 L 592.2 320.4 A 208.0 208.0 0 0 0 580.1 296.0 Z" fill="hsl(60, 66%, 58%)" stroke="#ffffff" stroke-width="0.55"/>
<path d="M 580.1 296.0 A 208.0 208.0 0 0 1 592.2 320.4 L 648.2 297.2 A 268.7 268.7 0 0 0 632.7 265.7 Z" fill="hsl(60, 73%, 50%)" stroke="#ffffff" stroke-width="0.55"/>
<path d="M 632.7 265.7 A 268.7 268.7 0 0 1 648.2 297.2 L 704.3 274.0 A 329.3 329.3 0 0 0 685.2 235.3 Z" fill="hsl(60, 80%, 42%)" stroke="#ffffff" stroke-width="0.55"/>
<path d="M 685.2 235.3 A 329.3 329.3 0 0 1 704.3 274.0 L 760.3 250.8 A 390.0 390.0 0 0 0 737.7 205.0 Z" fill="hsl(60, 87%, 34%)" stroke="#ffffff" stroke-width="0.55"/>
<path d="M 424.0 390.1 A 26.0 26.0 0 0 1 425.1 393.3 L 483.7 377.6 A 86.7 86.7 0 0 0 480.1 366.8 Z" fill="hsl(68, 52%, 74%)" stroke="#ffffff" stroke-width="0.55"/>
<path d="M 480.1 366.8 A 86.7 86.7 0 0 1 483.7 377.6 L 542.3 361.9 A 147.3 147.3 0 0 0 536.1 343.6 Z" fill="hsl(68, 59%, 66%)" stroke="#ffffff" stroke-width="0.55"/>
<path d="M 536.1 343.6 A 147.3 147.3 0 0 1 542.3 361.9 L 600.9 346.2 A 208.0 208.0 0 0 0 592.2 320.4 Z" fill="hsl(68, 66%, 58%)" stroke="#ffffff" stroke-width="0.55"/>
<path d="M 592.2 320.4 A 208.0 208.0 0 0 1 600.9 346.2 L 659.5 330.5 A 268.7 268.7 0 0 0 648.2 297.2 Z" fill="hsl(68, 73%, 50%)" stroke="#ffffff" stroke-width="0.55"/>
<path d="M 648.2 297.2 A 268.7 268.7 0 0 1 659.5 330.5 L 718.1 314.8 A 329.3 329.3 0 0 0 704.3 274.0 Z" fill="hsl(68, 80%, 42%)" stroke="#ffffff" stroke-width="0.55"/>
<path d="M 704.3 274.0 A 329.3 329.3 0 0 1 718.1 314.8 L 776.7 299.1 A 390.0 390.0 0 0 0 760.3 250.8 Z" fill="hsl(68, 87%, 34%)" stroke="#ffffff" stroke-width="0.55"/>
<path d="M 425.1 393.3 A 26.0 26.0 0 0 1 425.8 396.6 L 485.9 388.7 A 86.7 86.7 0 0 0 483.7 377.6 Z" fill="hsl(75, 52%, 74%)" stroke="#ffffff" stroke-width="0.55"/>
<path d="M 483.7 377.6 A 86.7 86.7 0 0 1 485.9 388.7 L 546.1 380.8 A 147.3 147.3 0 0 0 542.3 361.9 Z" fill="hsl(75, 59%, 66%)" stroke="#ffffff" stroke-width="0.55"/>
<path d="M 542.3 361.9 A 147.3 147.3 0 0 1 546.1 380.8 L 606.2 372.9 A 208.0 208.0 0 0 0 600.9 346.2 Z" fill="hsl(75, 66%, 58%)" stroke="#ffffff" stroke-width="0.55"/>
<path d="M 600.9 346.2 A 208.0 208.0 0 0 1 606.2 372.9 L 666.4 364.9 A 268.7 268.7 0 0 0 659.5 330.5 Z" fill="hsl(75, 73%, 50%)" stroke="#ffffff" stroke-width="0.55"/>
<path d="M 659.5 330.5 A 268.7 268.7 0 0 1 666.4 364.9 L 726.5 357.0 A 329.3 329.3 0 0 0 718.1 314.8 Z" fill="hsl(75, 80%, 42%)" stroke="#ffffff" stroke-width="0.55"/>
<path d="M 718.1 314.8 A 329.3 329.3 0 0 1 726.5 357.0 L 786.7 349.1 A 390.0 390.0 0 0 0 776.7 299.1 Z" fill="hsl(75, 87%, 34%)" stroke="#ffffff" stroke-width="0.55"/>
<path d="M 425.8 396.6 A 26.0 26.0 0 0 1 426.0 400.0 L 486.7 400.0 A 86.7 86.7 0 0 0 485.9 388.7 Z" fill="hsl(82, 52%, 74%)" stroke="#ffffff" stroke-width="0.55"/>
<path d="M 485.9 388.7 A 86.7 86.7 0 0 1 486.7 400.0 L 547.3 400.0 A 147.3 147.3 0 0 0 546.1 380.8 Z" fill="hsl(82, 59%, 66%)" stroke="#ffffff" stroke-width="0.55"/>
<path d="M 546.1 380.8 A 147.3 147.3 0 0 1 547.3 400.0 L 608.0 400.0 A 208.0 208.0 0 0 0 606.2 372.9 Z" fill="hsl(82, 66%, 58%)" stroke="#ffffff" stroke-width="0.55"/>
<path d="M 606.2 372.9 A 208.0 208.0 0 0 1 608.0 400.0 L 668.7 400.0 A 268.7 268.7 0 0 0 666.4 364.9 Z" fill="hsl(82, 73%, 50%)" stroke="#ffffff" stroke-width="0.55"/>
<path d="M 666.4 364.9 A 268.7 268.7 0 0 1 668.7 400.0 L 729.3 400.0 A 329.3 329.3 0 0 0 726.5 357.0 Z" fill="hsl(82, 80%, 42%)" stroke="#ffffff" stroke-width="0.55"/>
<path d="M 726.5 357.0 A 329.3 329.3 0 0 1 729.3 400.0 L 790.0 400.0 A 390.0 390.0 0 0 0 786.7 349.1 Z" fill="hsl(82, 87%, 34%)" stroke="#ffffff" stroke-width="0.55"/>
<path d="M 426.0 400.0 A 26.0 26.0 0 0 1 425.8 403.4 L 485.9 411.3 A 86.7 86.7 0 0 0 486.7 400.0 Z" fill="hsl(90, 52%, 74%)" stroke="#ffffff" stroke-width="0.55"/>
<path d="M 486.7 400.0 A 86.7 86.7 0 0 1 485.9 411.3 L 546.1 419.2 A 147.3 147.3 0 0 0 547.3 400.0 Z" fill="hsl(90, 59%, 66%)" stroke="#ffffff" stroke-width="0.55"/>
<path d="M 547.3 400.0 A 147.3 147.3 0 0 1 546.1 419.2 L 606.2 427.1 A 208.0 208.0 0 0 0 608.0 400.0 Z" fill="hsl(90, 66%, 58%)" stroke="#ffffff" stroke-width="0.55"/>
<path d="M 608.0 400.0 A 208.0 208.0 0 0 1 606.2 427.1 L 666.4 435.1 A 268.7 268.7 0 0 0 668.7 400.0 Z" fill="hsl(90, 73%, 50%)" stroke="#ffffff" stroke-width="0.55"/>
<path d="M 668.7 400.0 A 268.7 268.7 0 0 1 666.4 435.1 L 726.5 443.0 A 329.3 329.3 0 0 0 729.3 400.0 Z" fill="hsl(90, 80%, 42%)" stroke="#ffffff" stroke-width="0.55"/>
<path d="M 729.3 400.0 A 329.3 329.3 0 0 1 726.5 443.0 L 786.7 450.9 A 390.0 390.0 0 0 0 790.0 400.0 Z" fill="hsl(90, 87%, 34%)" stroke="#ffffff" stroke-width="0.55"/>
<path d="M 425.8 403.4 A 26.0 26.0 0 0 1 425.1 406.7 L 483.7 422.4 A 86.7 86.7 0 0 0 485.9 411.3 Z" fill="hsl(98, 52%, 74%)" stroke="#ffffff" stroke-width="0.55"/>
<path d="M 485.9 411.3 A 86.7 86.7 0 0 1 483.7 422.4 L 542.3 438.1 A 147.3 147.3 0 0 0 546.1 419.2 Z" fill="hsl(98, 59%, 66%)" stroke="#ffffff" stroke-width="0.55"/>
<path d="M 546.1 419.2 A 147.3 147.3 0 0 1 542.3 438.1 L 600.9 453.8 A 208.0 208.0 0 0 0 606.2 427.1 Z" fill="hsl(98, 66%, 58%)" stroke="#ffffff" stroke-width="0.55"/>
<path d="M 606.2 427.1 A 208.0 208.0 0 0 1 600.9 453.8 L 659.5 469.5 A 268.7 268.7 0 0 0 666.4 435.1 Z" fill="hsl(98, 73%, 50%)" stroke="#ffffff" stroke-width="0.55"/>
<path d="M 666.4 435.1 A 268.7 268.7 0 0 1 659.5 469.5 L 718.1 485.2 A 329.3 329.3 0 0 0 726.5 443.0 Z" fill="hsl(98, 80%, 42%)" stroke="#ffffff" stroke-width="0.55"/>
<path d="M 726.5 443.0 A 329.3 329.3 0 0 1 718.1 485.2 L 776.7 500.9 A 390.0 390.0 0 0 0 786.7 450.9 Z" fill="hsl(98, 87%, 34%)" stroke="#ffffff" stroke-width="0.55"/>
<path d="M 425.1 406.7 A 26.0 26.0 0 0 1 424.0 409.9 L 480.1 433.2 A 86.7 86.7 0 0 0 483.7 422.4 Z" fill="hsl(105, 52%, 74%)" stroke="#ffffff" stroke-width="0.55"/>
<path d="M 483.7 422.4 A 86.7 86.7 0 0 1 480.1 433.2 L 536.1 456.4 A 147.3 147.3 0 0 0 542.3 438.1 Z" fill="hsl(105, 59%, 66%)" stroke="#ffffff" stroke-width="0.55"/>
<path d="M 542.3 438.1 A 147.3 147.3 0 0 1 536.1 456.4 L 592.2 479.6 A 208.0 208.0 0 0 0 600.9 453.8 Z" fill="hsl(105, 66%, 58%)" stroke="#ffffff" stroke-width="0.55"/>
<path d="M 600.9 453.8 A 208.0 208.0 0 0 1 592.2 479.6 L 648.2 502.8 A 268.7 268.7 0 0 0 659.5 469.5 Z" fill="hsl(105, 73%, 50%)" stroke="#ffffff" stroke-width="0.55"/>
<path d="M 659.5 469.5 A 268.7 268.7 0 0 1 648.2 502.8 L 704.3 526.0 A 329.3 329.3 0 0 0 718.1 485.2 Z" fill="hsl(105, 80%, 42%)" stroke="#ffffff" stroke-width="0.55"/>
<path d="M 718.1 485.2 A 329.3 329.3 0 0 1 704.3 526.0 L 760.3 549.2 A 390.0 390.0 0 0 0 776.7 500.9 Z" fill="hsl(105, 87%, 34%)" stroke="#ffffff" stroke-width="0.55"/>
<path d="M 424.0 409.9 A 26.0 26.0 0 0 1 422.5 413.0 L 475.1 443.3 A 86.7 86.7 0 0 0 480.1 433.2 Z" fill="hsl(112, 52%, 74%)" stroke="#ffffff" stroke-width="0.55"/>
<path d="M 480.1 433.2 A 86.7 86.7 0 0 1 475.1 443.3 L 527.6 473.7 A 147.3 147.3 0 0 0 536.1 456.4 Z" fill="hsl(112, 59%, 66%)" stroke="#ffffff" stroke-width="0.55"/>
<path d="M 536.1 456.4 A 147.3 147.3 0 0 1 527.6 473.7 L 580.1 504.0 A 208.0 208.0 0 0 0 592.2 479.6 Z" fill="hsl(112, 66%, 58%)" stroke="#ffffff" stroke-width="0.55"/>
<path d="M 592.2 479.6 A 208.0 208.0 0 0 1 580.1 504.0 L 632.7 534.3 A 268.7 268.7 0 0 0 648.2 502.8 Z" fill="hsl(112, 73%, 50%)" stroke="#ffffff" stroke-width="0.55"/>
<path d="M 648.2 502.8 A 268.7 268.7 0 0 1 632.7 534.3 L 685.2 564.7 A 329.3 329.3 0 0 0 704.3 526.0 Z" fill="hsl(112, 80%, 42%)" stroke="#ffffff" stroke-width="0.55"/>
<path d="M 704.3 526.0 A 329.3 329.3 0 0 1 685.2 564.7 L 737.7 595.0 A 390.0 390.0 0 0 0 760.3 549.2 Z" fill="hsl(112, 87%, 34%)" stroke="#ffffff" stroke-width="0.55"/>
<path d="M 422.5 413.0 A 26.0 26.0 0 0 1 420.6 415.8 L 468.8 452.8 A 86.7 86.7 0 0 0 475.1 443.3 Z" fill="hsl(120, 52%, 74%)" stroke="#ffffff" stroke-width="0.55"/>
<path d="M 475.1 443.3 A 86.7 86.7 0 0 1 468.8 452.8 L 516.9 489.7 A 147.3 147.3 0 0 0 527.6 473.7 Z" fill="hsl(120, 59%, 66%)" stroke="#ffffff" stroke-width="0.55"/>
<path d="M 527.6 473.7 A 147.3 147.3 0 0 1 516.9 489.7 L 565.0 526.6 A 208.0 208.0 0 0 0 580.1 504.0 Z" fill="hsl(120, 66%, 58%)" stroke="#ffffff" stroke-width="0.55"/>
<path d="M 580.1 504.0 A 208.0 208.0 0 0 1 565.0 526.6 L 613.1 563.6 A 268.7 268.7 0 0 0 632.7 534.3 Z" fill="hsl(120, 73%, 50%)" stroke="#ffffff" stroke-width="0.55"/>
<path d="M 632.7 534.3 A 268.7 268.7 0 0 1 613.1 563.6 L 661.3 600.5 A 329.3 329.3 0 0 0 685.2 564.7 Z" fill="hsl(120, 80%, 42%)" stroke="#ffffff" stroke-width="0.55"/>
<path d="M 685.2 564.7 A 329.3 329.3 0 0 1 661.3 600.5 L 709.4 637.4 A 390.0 390.0 0 0 0 737.7 595.0 Z" fill="hsl(120, 87%, 34%)" stroke="#ffffff" stroke-width="0.55"/>
<path d="M 420.6 415.8 A 26.0 26.0 0 0 1 418.4 418.4 L 461.3 461.3 A 86.7 86.7 0 0 0 468.8 452.8 Z" fill="hsl(128, 52%, 74%)" stroke="#ffffff" stroke-width="0.55"/>
<path d="M 468.8 452.8 A 86.7 86.7 0 0 1 461.3 461.3 L 504.2 504.2 A 147.3 147.3 0 0 0 516.9 489.7 Z" fill="hsl(128, 59%, 66%)" stroke="#ffffff" stroke-width="0.55"/>
<path d="M 516.9 489.7 A 147.3 147.3 0 0 1 504.2 504.2 L 547.1 547.1 A 208.0 208.0 0 0 0 565.0 526.6 Z" fill="hsl(128, 66%, 58%)" stroke="#ffffff" stroke-width="0.55"/>
<path d="M 565.0 526.6 A 208.0 208.0 0 0 1 547.1 547.1 L 590.0 590.0 A 268.7 268.7 0 0 0 613.1 563.6 Z" fill="hsl(128, 73%, 50%)" stroke="#ffffff" stroke-width="0.55"/>
<path d="M 613.1 563.6 A 268.7 268.7 0 0 1 590.0 590.0 L 632.9 632.9 A 329.3 329.3 0 0 0 661.3 600.5 Z" fill="hsl(128, 80%, 42%)" stroke="#ffffff" stroke-width="0.55"/>
<path d="M 661.3 600.5 A 329.3 329.3 0 0 1 632.9 632.9 L 675.8 675.8 A 390.0 390.0 0 0 0 709.4 637.4 Z" fill="hsl(128, 87%, 34%)" stroke="#ffffff" stroke-width="0.55"/>
<path d="M 418.4 418.4 A 26.0 26.0 0 0 1 415.8 420.6 L 452.8 468.8 A 86.7 86.7 0 0 0 461.3 461.3 Z" fill="hsl(135, 52%, 74%)" stroke="#ffffff" stroke-width="0.55"/>
<path d="M 461.3 461.3 A 86.7 86.7 0 0 1 452.8 468.8 L 489.7 516.9 A 147.3 147.3 0 0 0 504.2 504.2 Z" fill="hsl(135, 59%, 66%)" stroke="#ffffff" stroke-width="0.55"/>
<path d="M 504.2 504.2 A 147.3 147.3 0 0 1 489.7 516.9 L 526.6 565.0 A 208.0 208.0 0 0 0 547.1 547.1 Z" fill="hsl(135, 66%, 58%)" stroke="#ffffff" stroke-width="0.55"/>
<path d="M 547.1 547.1 A 208.0 208.0 0 0 1 526.6 565.0 L 563.6 613.1 A 268.7 268.7 0 0 0 590.0 590.0 Z" fill="hsl(135, 73%, 50%)" stroke="#ffffff" stroke-width="0.55"/>
<path d="M 590.0 590.0 A 268.7 268.7 0 0 1 563.6 613.1 L 600.5 661.3 A 329.3 329.3 0 0 0 632.9 632.9 Z" fill="hsl(135, 80%, 42%)" stroke="#ffffff" stroke-width="0.55"/>
<path d="M 632.9 632.9 A 329.3 329.3 0 0 1 600.5 661.3 L 637.4 709.4 A 390.0 390.0 0 0 0 675.8 675.8 Z" fill="hsl(135, 87%, 34%)" stroke="#ffffff" stroke-width="0.55"/>
<path d="M 415.8 420.6 A 26.0 26.0 0 0 1 413.0 422.5 L 443.3 475.1 A 86.7 86.7 0 0 0 452.8 468.8 Z" fill="hsl(142, 52%, 74%)" stroke="#ffffff" stroke-width="0.55"/>
<path d="M 452.8 468.8 A 86.7 86.7 0 0 1 443.3 475.1 L 473.7 527.6 A 147.3 147.3 0 0 0 489.7 516.9 Z" fill="hsl(142, 59%, 66%)" stroke="#ffffff" stroke-width="0.55"/>
<path d="M 489.7 516.9 A 147.3 147.3 0 0 1 473.7 527.6 L 504.0 580.1 A 208.0 208.0 0 0 0 526.6 565.0 Z" fill="hsl(142, 66%, 58%)" stroke="#ffffff" stroke-width="0.55"/>
<path d="M 526.6 565.0 A 208.0 208.0 0 0 1 504.0 580.1 L 534.3 632.7 A 268.7 268.7 0 0 0 563.6 613.1 Z" fill="hsl(142, 73%, 50%)" stroke="#ffffff" stroke-width="0.55"/>
<path d="M 563.6 613.1 A 268.7 268.7 0 0 1 534.3 632.7 L 564.7 685.2 A 329.3 329.3 0 0 0 600.5 661.3 Z" fill="hsl(142, 80%, 42%)" stroke="#ffffff" stroke-width="0.55"/>
<path d="M 600.5 661.3 A 329.3 329.3 0 0 1 564.7 685.2 L 595.0 737.7 A 390.0 390.0 0 0 0 637.4 709.4 Z" fill="hsl(142, 87%, 34%)" stroke="#ffffff" stroke-width="0.55"/>
<path d="M 413.0 422.5 A 26.0 26.0 0 0 1 409.9 424.0 L 433.2 480.1 A 86.7 86.7 0 0 0 443.3 475.1 Z" fill="hsl(150, 52%, 74%)" stroke="#ffffff" stroke-width="0.55"/>
<path d="M 443.3 475.1 A 86.7 86.7 0 0 1 433.2 480.1 L 456.4 536.1 A 147.3 147.3 0 0 0 473.7 527.6 Z" fill="hsl(150, 59%, 66%)" stroke="#ffffff" stroke-width="0.55"/>
<path d="M 473.7 527.6 A 147.3 147.3 0 0 1 456.4 536.1 L 479.6 592.2 A 208.0 208.0 0 0 0 504.0 580.1 Z" fill="hsl(150, 66%, 58%)" stroke="#ffffff" stroke-width="0.55"/>
<path d="M 504.0 580.1 A 208.0 208.0 0 0 1 479.6 592.2 L 502.8 648.2 A 268.7 268.7 0 0 0 534.3 632.7 Z" fill="hsl(150, 73%, 50%)" stroke="#ffffff" stroke-width="0.55"/>
<path d="M 534.3 632.7 A 268.7 268.7 0 0 1 502.8 648.2 L 526.0 704.3 A 329.3 329.3 0 0 0 564.7 685.2 Z" fill="hsl(150, 80%, 42%)" stroke="#ffffff" stroke-width="0.55"/>
<path d="M 564.7 685.2 A 329.3 329.3 0 0 1 526.0 704.3 L 549.2 760.3 A 390.0 390.0 0 0 0 595.0 737.7 Z" fill="hsl(150, 87%, 34%)" stroke="#ffffff" stroke-width="0.55"/>
<path d="M 409.9 424.0 A 26.0 26.0 0 0 1 406.7 425.1 L 422.4 483.7 A 86.7 86.7 0 0 0 433.2 480.1 Z" fill="hsl(158, 52%, 74%)" stroke="#ffffff" stroke-width="0.55"/>
<path d="M 433.2 480.1 A 86.7 86.7 0 0 1 422.4 483.7 L 438.1 542.3 A 147.3 147.3 0 0 0 456.4 536.1 Z" fill="hsl(158, 59%, 66%)" stroke="#ffffff" stroke-width="0.55"/>
<path d="M 456.4 536.1 A 147.3 147.3 0 0 1 438.1 542.3 L 453.8 600.9 A 208.0 208.0 0 0 0 479.6 592.2 Z" fill="hsl(158, 66%, 58%)" stroke="#ffffff" stroke-width="0.55"/>
<path d="M 479.6 592.2 A 208.0 208.0 0 0 1 453.8 600.9 L 469.5 659.5 A 268.7 268.7 0 0 0 502.8 648.2 Z" fill="hsl(158, 73%, 50%)" stroke="#ffffff" stroke-width="0.55"/>
<path d="M 502.8 648.2 A 268.7 268.7 0 0 1 469.5 659.5 L 485.2 718.1 A 329.3 329.3 0 0 0 526.0 704.3 Z" fill="hsl(158, 80%, 42%)" stroke="#ffffff" stroke-width="0.55"/>
<path d="M 526.0 704.3 A 329.3 329.3 0 0 1 485.2 718.1 L 500.9 776.7 A 390.0 390.0 0 0 0 549.2 760.3 Z" fill="hsl(158, 87%, 34%)" stroke="#ffffff" stroke-width="0.55"/>
<path d="M 406.7 425.1 A 26.0 26.0 0 0 1 403.4 425.8 L 411.3 485.9 A 86.7 86.7 0 0 0 422.4 483.7 Z" fill="hsl(165, 52%, 74%)" stroke="#ffffff" stroke-width="0.55"/>
<path d="M 422.4 483.7 A 86.7 86.7 0 0 1 411.3 485.9 L 419.2 546.1 A 147.3 147.3 0 0 0 438.1 542.3 Z" fill="hsl(165, 59%, 66%)" stroke="#ffffff" stroke-width="0.55"/>
<path d="M 438.1 542.3 A 147.3 147.3 0 0 1 419.2 546.1 L 427.1 606.2 A 208.0 208.0 0 0 0 453.8 600.9 Z" fill="hsl(165, 66%, 58%)" stroke="#ffffff" stroke-width="0.55"/>
<path d="M 453.8 600.9 A 208.0 208.0 0 0 1 427.1 606.2 L 435.1 666.4 A 268.7 268.7 0 0 0 469.5 659.5 Z" fill="hsl(165, 73%, 50%)" stroke="#ffffff" stroke-width="0.55"/>
<path d="M 469.5 659.5 A 268.7 268.7 0 0 1 435.1 666.4 L 443.0 726.5 A 329.3 329.3 0 0 0 485.2 718.1 Z" fill="hsl(165, 80%, 42%)" stroke="#ffffff" stroke-width="0.55"/>
<path d="M 485.2 718.1 A 329.3 329.3 0 0 1 443.0 726.5 L 450.9 786.7 A 390.0 390.0 0 0 0 500.9 776.7 Z" fill="hsl(165, 87%, 34%)" stroke="#ffffff" stroke-width="0.55"/>
<path d="M 403.4 425.8 A 26.0 26.0 0 0 1 400.0 426.0 L 400.0 486.7 A 86.7 86.7 0 0 0 411.3 485.9 Z" fill="hsl(172, 52%, 74%)" stroke="#ffffff" stroke-width="0.55"/>
<path d="M 411.3 485.9 A 86.7 86.7 0 0 1 400.0 486.7 L 400.0 547.3 A 147.3 147.3 0 0 0 419.2 546.1 Z" fill="hsl(172, 59%, 66%)" stroke="#ffffff" stroke-width="0.55"/>
<path d="M 419.2 546.1 A 147.3 147.3 0 0 1 400.0 547.3 L 400.0 608.0 A 208.0 208.0 0 0 0 427.1 606.2 Z" fill="hsl(172, 66%, 58%)" stroke="#ffffff" stroke-width="0.55"/>
<path d="M 427.1 606.2 A 208.0 208.0 0 0 1 400.0 608.0 L 400.0 668.7 A 268.7 268.7 0 0 0 435.1 666.4 Z" fill="hsl(172, 73%, 50%)" stroke="#ffffff" stroke-width="0.55"/>
<path d="M 435.1 666.4 A 268.7 268.7 0 0 1 400.0 668.7 L 400.0 729.3 A 329.3 329.3 0 0 0 443.0 726.5 Z" fill="hsl(172, 80%, 42%)" stroke="#ffffff" stroke-width="0.55"/>
<path d="M 443.0 726.5 A 329.3 329.3 0 0 1 400.0 729.3 L 400.0 790.0 A 390.0 390.0 0 0 0 450.9 786.7 Z" fill="hsl(172, 87%, 34%)" stroke="#ffffff" stroke-width="0.55"/>
<path d="M 400.0 426.0 A 26.0 26.0 0 0 1 396.6 425.8 L 388.7 485.9 A 86.7 86.7 0 0 0 400.0 486.7 Z" fill="hsl(180, 52%, 74%)" stroke="#ffffff" stroke-width="0.55"/>
<path d="M 400.0 486.7 A 86.7 86.7 0 0 1 388.7 485.9 L 380.8 546.1 A 147.3 147.3 0 0 0 400.0 547.3 Z" fill="hsl(180, 59%, 66%)" stroke="#ffffff" stroke-width="0.55"/>
<path d="M 400.0 547.3 A 147.3 147.3 0 0 1 380.8 546.1 L 372.9 606.2 A 208.0 208.0 0 0 0 400.0 608.0 Z" fill="hsl(180, 66%, 58%)" stroke="#ffffff" stroke-width="0.55"/>
<path d="M 400.0 608.0 A 208.0 208.0 0 0 1 372.9 606.2 L 364.9 666.4 A 268.7 268.7 0 0 0 400.0 668.7 Z" fill="hsl(180, 73%, 50%)" stroke="#ffffff" stroke-width="0.55"/>
<path d="M 400.0 668.7 A 268.7 268.7 0 0 1 364.9 666.4 L 357.0 726.5 A 329.3 329.3 0 0 0 400.0 729.3 Z" fill="hsl(180, 80%, 42%)" stroke="#ffffff" stroke-width="0.55"/>
<path d="M 400.0 729.3 A 329.3 329.3 0 0 1 357.0 726.5 L 349.1 786.7 A 390.0 390.0 0 0 0 400.0 790.0 Z" fill="hsl(180, 87%, 34%)" stroke="#ffffff" stroke-width="0.55"/>
<path d="M 396.6 425.8 A 26.0 26.0 0 0 1 393.3 425.1 L 377.6 483.7 A 86.7 86.7 0 0 0 388.7 485.9 Z" fill="hsl(188, 52%, 74%)" stroke="#ffffff" stroke-width="0.55"/>
<path d="M 388.7 485.9 A 86.7 86.7 0 0 1 377.6 483.7 L 361.9 542.3 A 147.3 147.3 0 0 0 380.8 546.1 Z" fill="hsl(188, 59%, 66%)" stroke="#ffffff" stroke-width="0.55"/>
<path d="M 380.8 546.1 A 147.3 147.3 0 0 1 361.9 542.3 L 346.2 600.9 A 208.0 208.0 0 0 0 372.9 606.2 Z" fill="hsl(188, 66%, 58%)" stroke="#ffffff" stroke-width="0.55"/>
<path d="M 372.9 606.2 A 208.0 208.0 0 0 1 346.2 600.9 L 330.5 659.5 A 268.7 268.7 0 0 0 364.9 666.4 Z" fill="hsl(188, 73%, 50%)" stroke="#ffffff" stroke-width="0.55"/>
<path d="M 364.9 666.4 A 268.7 268.7 0 0 1 330.5 659.5 L 314.8 718.1 A 329.3 329.3 0 0 0 357.0 726.5 Z" fill="hsl(188, 80%, 42%)" stroke="#ffffff" stroke-width="0.55"/>
<path d="M 357.0 726.5 A 329.3 329.3 0 0 1 314.8 718.1 L 299.1 776.7 A 390.0 390.0 0 0 0 349.1 786.7 Z" fill="hsl(188, 87%, 34%)" stroke="#ffffff" stroke-width="0.55"/>
<path d="M 393.3 425.1 A 26.0 26.0 0 0 1 390.1 424.0 L 366.8 480.1 A 86.7 86.7 0 0 0 377.6 483.7 Z" fill="hsl(195, 52%, 74%)" stroke="#ffffff" stroke-width="0.55"/>
<path d="M 377.6 483.7 A 86.7 86.7 0 0 1 366.8 480.1 L 343.6 536.1 A 147.3 147.3 0 0 0 361.9 542.3 Z" fill="hsl(195, 59%, 66%)" stroke="#ffffff" stroke-width="0.55"/>
<path d="M 361.9 542.3 A 147.3 147.3 0 0 1 343.6 536.1 L 320.4 592.2 A 208.0 208.0 0 0 0 346.2 600.9 Z" fill="hsl(195, 66%, 58%)" stroke="#ffffff" stroke-width="0.55"/>
<path d="M 346.2 600.9 A 208.0 208.0 0 0 1 320.4 592.2 L 297.2 648.2 A 268.7 268.7 0 0 0 330.5 659.5 Z" fill="hsl(195, 73%, 50%)" stroke="#ffffff" stroke-width="0.55"/>
<path d="M 330.5 659.5 A 268.7 268.7 0 0 1 297.2 648.2 L 274.0 704.3 A 329.3 329.3 0 0 0 314.8 718.1 Z" fill="hsl(195, 80%, 42%)" stroke="#ffffff" stroke-width="0.55"/>
<path d="M 314.8 718.1 A 329.3 329.3 0 0 1 274.0 704.3 L 250.8 760.3 A 390.0 390.0 0 0 0 299.1 776.7 Z" fill="hsl(195, 87%, 34%)" stroke="#ffffff" stroke-width="0.55"/>
<path d="M 390.1 424.0 A 26.0 26.0 0 0 1 387.0 422.5 L 356.7 475.1 A 86.7 86.7 0 0 0 366.8 480.1 Z" fill="hsl(202, 52%, 74%)" stroke="#ffffff" stroke-width="0.55"/>
<path d="M 366.8 480.1 A 86.7 86.7 0 0 1 356.7 475.1 L 326.3 527.6 A 147.3 147.3 0 0 0 343.6 536.1 Z" fill="hsl(202, 59%, 66%)" stroke="#ffffff" stroke-width="0.55"/>
<path d="M 343.6 536.1 A 147.3 147.3 0 0 1 326.3 527.6 L 296.0 580.1 A 208.0 208.0 0 0 0 320.4 592.2 Z" fill="hsl(202, 66%, 58%)" stroke="#ffffff" stroke-width="0.55"/>
<path d="M 320.4 592.2 A 208.0 208.0 0 0 1 296.0 580.1 L 265.7 632.7 A 268.7 268.7 0 0 0 297.2 648.2 Z" fill="hsl(202, 73%, 50%)" stroke="#ffffff" stroke-width="0.55"/>
<path d="M 297.2 648.2 A 268.7 268.7 0 0 1 265.7 632.7 L 235.3 685.2 A 329.3 329.3 0 0 0 274.0 704.3 Z" fill="hsl(202, 80%, 42%)" stroke="#ffffff" stroke-width="0.55"/>
<path d="M 274.0 704.3 A 329.3 329.3 0 0 1 235.3 685.2 L 205.0 737.7 A 390.0 390.0 0 0 0 250.8 760.3 Z" fill="hsl(202, 87%, 34%)" stroke="#ffffff" stroke-width="0.55"/>
<path d="M 387.0 422.5 A 26.0 26.0 0 0 1 384.2 420.6 L 347.2 468.8 A 86.7 86.7 0 0 0 356.7 475.1 Z" fill="hsl(210, 52%, 74%)" stroke="#ffffff" stroke-width="0.55"/>
<path d="M 356.7 475.1 A 86.7 86.7 0 0 1 347.2 468.8 L 310.3 516.9 A 147.3 147.3 0 0 0 326.3 527.6 Z" fill="hsl(210, 59%, 66%)" stroke="#ffffff" stroke-width="0.55"/>
<path d="M 326.3 527.6 A 147.3 147.3 0 0 1 310.3 516.9 L 273.4 565.0 A 208.0 208.0 0 0 0 296.0 580.1 Z" fill="hsl(210, 66%, 58%)" stroke="#ffffff" stroke-width="0.55"/>
<path d="M 296.0 580.1 A 208.0 208.0 0 0 1 273.4 565.0 L 236.4 613.1 A 268.7 268.7 0 0 0 265.7 632.7 Z" fill="hsl(210, 73%, 50%)" stroke="#ffffff" stroke-width="0.55"/>
<path d="M 265.7 632.7 A 268.7 268.7 0 0 1 236.4 613.1 L 199.5 661.3 A 329.3 329.3 0 0 0 235.3 685.2 Z" fill="hsl(210, 80%, 42%)" stroke="#ffffff" stroke-width="0.55"/>
<path d="M 235.3 685.2 A 329.3 329.3 0 0 1 199.5 661.3 L 162.6 709.4 A 390.0 390.0 0 0 0 205.0 737.7 Z" fill="hsl(210, 87%, 34%)" stroke="#ffffff" stroke-width="0.55"/>
<path d="M 384.2 420.6 A 26.0 26.0 0 0 1 381.6 418.4 L 338.7 461.3 A 86.7 86.7 0 0 0 347.2 468.8 Z" fill="hsl(218, 52%, 74%)" stroke="#ffffff" stroke-width="0.55"/>
<path d="M 347.2 468.8 A 86.7 86.7 0 0 1 338.7 461.3 L 295.8 504.2 A 147.3 147.3 0 0 0 310.3 516.9 Z" fill="hsl(218, 59%, 66%)" stroke="#ffffff" stroke-width="0.55"/>
<path d="M 310.3 516.9 A 147.3 147.3 0 0 1 295.8 504.2 L 252.9 547.1 A 208.0 208.0 0 0 0 273.4 565.0 Z" fill="hsl(218, 66%, 58%)" stroke="#ffffff" stroke-width="0.55"/>
<path d="M 273.4 565.0 A 208.0 208.0 0 0 1 252.9 547.1 L 210.0 590.0 A 268.7 268.7 0 0 0 236.4 613.1 Z" fill="hsl(218, 73%, 50%)" stroke="#ffffff" stroke-width="0.55"/>
<path d="M 236.4 613.1 A 268.7 268.7 0 0 1 210.0 590.0 L 167.1 632.9 A 329.3 329.3 0 0 0 199.5 661.3 Z" fill="hsl(218, 80%, 42%)" stroke="#ffffff" stroke-width="0.55"/>
<path d="M 199.5 661.3 A 329.3 329.3 0 0 1 167.1 632.9 L 124.2 675.8 A 390.0 390.0 0 0 0 162.6 709.4 Z" fill="hsl(218, 87%, 34%)" stroke="#ffffff" stroke-width="0.55"/>
<path d="M 381.6 418.4 A 26.0 26.0 0 0 1 379.4 415.8 L 331.2 452.8 A 86.7 86.7 0 0 0 338.7 461.3 Z" fill="hsl(225, 52%, 74%)" stroke="#ffffff" stroke-width="0.55"/>
<path d="M 338.7 461.3 A 86.7 86.7 0 0 1 331.2 452.8 L 283.1 489.7 A 147.3 147.3 0 0 0 295.8 504.2 Z" fill="hsl(225, 59%, 66%)" stroke="#ffffff" stroke-width="0.55"/>
<path d="M 295.8 504.2 A 147.3 147.3 0 0 1 283.1 489.7 L 235.0 526.6 A 208.0 208.0 0 0 0 252.9 547.1 Z" fill="hsl(225, 66%, 58%)" stroke="#ffffff" stroke-width="0.55"/>
<path d="M 252.9 547.1 A 208.0 208.0 0 0 1 235.0 526.6 L 186.9 563.6 A 268.7 268.7 0 0 0 210.0 590.0 Z" fill="hsl(225, 73%, 50%)" stroke="#ffffff" stroke-width="0.55"/>
<path d="M 210.0 590.0 A 268.7 268.7 0 0 1 186.9 563.6 L 138.7 600.5 A 329.3 329.3 0 0 0 167.1 632.9 Z" fill="hsl(225, 80%, 42%)" stroke="#ffffff" stroke-width="0.55"/>
<path d="M 167.1 632.9 A 329.3 329.3 0 0 1 138.7 600.5 L 90.6 637.4 A 390.0 390.0 0 0 0 124.2 675.8 Z" fill="hsl(225, 87%, 34%)" stroke="#ffffff" stroke-width="0.55"/>
<path d="M 379.4 415.8 A 26.0 26.0 0 0 1 377.5 413.0 L 324.9 443.3 A 86.7 86.7 0 0 0 331.2 452.8 Z" fill="hsl(232, 52%, 74%)" stroke="#ffffff" stroke-width="0.55"/>
<path d="M 331.2 452.8 A 86.7 86.7 0 0 1 324.9 443.3 L 272.4 473.7 A 147.3 147.3 0 0 0 283.1 489.7 Z" fill="hsl(232, 59%, 66%)" stroke="#ffffff" stroke-width="0.55"/>
<path d="M 283.1 489.7 A 147.3 147.3 0 0 1 272.4 473.7 L 219.9 504.0 A 208.0 208.0 0 0 0 235.0 526.6 Z" fill="hsl(232, 66%, 58%)" stroke="#ffffff" stroke-width="0.55"/>
<path d="M 235.0 526.6 A 208.0 208.0 0 0 1 219.9 504.0 L 167.3 534.3 A 268.7 268.7 0 0 0 186.9 563.6 Z" fill="hsl(232, 73%, 50%)" stroke="#ffffff" stroke-width="0.55"/>
<path d="M 186.9 563.6 A 268.7 268.7 0 0 1 167.3 534.3 L 114.8 564.7 A 329.3 329.3 0 0 0 138.7 600.5 Z" fill="hsl(232, 80%, 42%)" stroke="#ffffff" stroke-width="0.55"/>
<path d="M 138.7 600.5 A 329.3 329.3 0 0 1 114.8 564.7 L 62.3 595.0 A 390.0 390.0 0 0 0 90.6 637.4 Z" fill="hsl(232, 87%, 34%)" stroke="#ffffff" stroke-width="0.55"/>
<path d="M 377.5 413.0 A 26.0 26.0 0 0 1 376.0 409.9 L 319.9 433.2 A 86.7 86.7 0 0 0 324.9 443.3 Z" fill="hsl(240, 52%, 74%)" stroke="#ffffff" stroke-width="0.55"/>
<path d="M 324.9 443.3 A 86.7 86.7 0 0 1 319.9 433.2 L 263.9 456.4 A 147.3 147.3 0 0 0 272.4 473.7 Z" fill="hsl(240, 59%, 66%)" stroke="#ffffff" stroke-width="0.55"/>
<path d="M 272.4 473.7 A 147.3 147.3 0 0 1 263.9 456.4 L 207.8 479.6 A 208.0 208.0 0 0 0 219.9 504.0 Z" fill="hsl(240, 66%, 58%)" stroke="#ffffff" stroke-width="0.55"/>
<path d="M 219.9 504.0 A 208.0 208.0 0 0 1 207.8 479.6 L 151.8 502.8 A 268.7 268.7 0 0 0 167.3 534.3 Z" fill="hsl(240, 73%, 50%)" stroke="#ffffff" stroke-width="0.55"/>
<path d="M 167.3 534.3 A 268.7 268.7 0 0 1 151.8 502.8 L 95.7 526.0 A 329.3 329.3 0 0 0 114.8 564.7 Z" fill="hsl(240, 80%, 42%)" stroke="#ffffff" stroke-width="0.55"/>
<path d="M 114.8 564.7 A 329.3 329.3 0 0 1 95.7 526.0 L 39.7 549.2 A 390.0 390.0 0 0 0 62.3 595.0 Z" fill="hsl(240, 87%, 34%)" stroke="#ffffff" stroke-width="0.55"/>
<path d="M 376.0 409.9 A 26.0 26.0 0 0 1 374.9 406.7 L 316.3 422.4 A 86.7 86.7 0 0 0 319.9 433.2 Z" fill="hsl(248, 52%, 74%)" stroke="#ffffff" stroke-width="0.55"/>
<path d="M 319.9 433.2 A 86.7 86.7 0 0 1 316.3 422.4 L 257.7 438.1 A 147.3 147.3 0 0 0 263.9 456.4 Z" fill="hsl(248, 59%, 66%)" stroke="#ffffff" stroke-width="0.55"/>
<path d="M 263.9 456.4 A 147.3 147.3 0 0 1 257.7 438.1 L 199.1 453.8 A 208.0 208.0 0 0 0 207.8 479.6 Z" fill="hsl(248, 66%, 58%)" stroke="#ffffff" stroke-width="0.55"/>
<path d="M 207.8 479.6 A 208.0 208.0 0 0 1 199.1 453.8 L 140.5 469.5 A 268.7 268.7 0 0 0 151.8 502.8 Z" fill="hsl(248, 73%, 50%)" stroke="#ffffff" stroke-width="0.55"/>
<path d="M 151.8 502.8 A 268.7 268.7 0 0 1 140.5 469.5 L 81.9 485.2 A 329.3 329.3 0 0 0 95.7 526.0 Z" fill="hsl(248, 80%, 42%)" stroke="#ffffff" stroke-width="0.55"/>
<path d="M 95.7 526.0 A 329.3 329.3 0 0 1 81.9 485.2 L 23.3 500.9 A 390.0 390.0 0 0 0 39.7 549.2 Z" fill="hsl(248, 87%, 34%)" stroke="#ffffff" stroke-width="0.55"/>
<path d="M 374.9 406.7 A 26.0 26.0 0 0 1 374.2 403.4 L 314.1 411.3 A 86.7 86.7 0 0 0 316.3 422.4 Z" fill="hsl(255, 52%, 74%)" stroke="#ffffff" stroke-width="0.55"/>
<path d="M 316.3 422.4 A 86.7 86.7 0 0 1 314.1 411.3 L 253.9 419.2 A 147.3 147.3 0 0 0 257.7 438.1 Z" fill="hsl(255, 59%, 66%)" stroke="#ffffff" stroke-width="0.55"/>
<path d="M 257.7 438.1 A 147.3 147.3 0 0 1 253.9 419.2 L 193.8 427.1 A 208.0 208.0 0 0 0 199.1 453.8 Z" fill="hsl(255, 66%, 58%)" stroke="#ffffff" stroke-width="0.55"/>
<path d="M 199.1 453.8 A 208.0 208.0 0 0 1 193.8 427.1 L 133.6 435.1 A 268.7 268.7 0 0 0 140.5 469.5 Z" fill="hsl(255, 73%, 50%)" stroke="#ffffff" stroke-width="0.55"/>
<path d="M 140.5 469.5 A 268.7 268.7 0 0 1 133.6 435.1 L 73.5 443.0 A 329.3 329.3 0 0 0 81.9 485.2 Z" fill="hsl(255, 80%, 42%)" stroke="#ffffff" stroke-width="0.55"/>
<path d="M 81.9 485.2 A 329.3 329.3 0 0 1 73.5 443.0 L 13.3 450.9 A 390.0 390.0 0 0 0 23.3 500.9 Z" fill="hsl(255, 87%, 34%)" stroke="#ffffff" stroke-width="0.55"/>
<path d="M 374.2 403.4 A 26.0 26.0 0 0 1 374.0 400.0 L 313.3 400.0 A 86.7 86.7 0 0 0 314.1 411.3 Z" fill="hsl(262, 52%, 74%)" stroke="#ffffff" stroke-width="0.55"/>
<path d="M 314.1 411.3 A 86.7 86.7 0 0 1 313.3 400.0 L 252.7 400.0 A 147.3 147.3 0 0 0 253.9 419.2 Z" fill="hsl(262, 59%, 66%)" stroke="#ffffff" stroke-width="0.55"/>
<path d="M 253.9 419.2 A 147.3 147.3 0 0 1 252.7 400.0 L 192.0 400.0 A 208.0 208.0 0 0 0 193.8 427.1 Z" fill="hsl(262, 66%, 58%)" stroke="#ffffff" stroke-width="0.55"/>
<path d="M 193.8 427.1 A 208.0 208.0 0 0 1 192.0 400.0 L 131.3 400.0 A 268.7 268.7 0 0 0 133.6 435.1 Z" fill="hsl(262, 73%, 50%)" stroke="#ffffff" stroke-width="0.55"/>
<path d="M 133.6 435.1 A 268.7 268.7 0 0 1 131.3 400.0 L 70.7 400.0 A 329.3 329.3 0 0 0 73.5 443.0 Z" fill="hsl(262, 80%, 42%)" stroke="#ffffff" stroke-width="0.55"/>
<path d="M 73.5 443.0 A 329.3 329.3 0 0 1 70.7 400.0 L 10.0 400.0 A 390.0 390.0 0 0 0 13.3 450.9 Z" fill="hsl(262, 87%, 34%)" stroke="#ffffff" stroke-width="0.55"/>
<path d="M 374.0 400.0 A 26.0 26.0 0 0 1 374.2 396.6 L 314.1 388.7 A 86.7 86.7 0 0 0 313.3 400.0 Z" fill="hsl(270, 52%, 74%)" stroke="#ffffff" stroke-width="0.55"/>
<path d="M 313.3 400.0 A 86.7 86.7 0 0 1 314.1 388.7 L 253.9 380.8 A 147.3 147.3 0 0 0 252.7 400.0 Z" fill="hsl(270, 59%, 66%)" stroke="#ffffff" stroke-width="0.55"/>
<path d="M 252.7 400.0 A 147.3 147.3 0 0 1 253.9 380.8 L 193.8 372.9 A 208.0 208.0 0 0 0 192.0 400.0 Z" fill="hsl(270, 66%, 58%)" stroke="#ffffff" stroke-width="0.55"/>
<path d="M 192.0 400.0 A 208.0 208.0 0 0 1 193.8 372.9 L 133.6 364.9 A 268.7 268.7 0 0 0 131.3 400.0 Z" fill="hsl(270, 73%, 50%)" stroke="#ffffff" stroke-width="0.55"/>
<path d="M 131.3 400.0 A 268.7 268.7 0 0 1 133.6 364.9 L 73.5 357.0 A 329.3 329.3 0 0 0 70.7 400.0 Z" fill="hsl(270, 80%, 42%)" stroke="#ffffff" stroke-width="0.55"/>
<path d="M 70.7 400.0 A 329.3 329.3 0 0 1 73.5 357.0 L 13.3 349.1 A 390.0 390.0 0 0 0 10.0 400.0 Z" fill="hsl(270, 87%, 34%)" stroke="#ffffff" stroke-width="0.55"/>
<path d="M 374.2 396.6 A 26.0 26.0 0 0 1 374.9 393.3 L 316.3 377.6 A 86.7 86.7 0 0 0 314.1 388.7 Z" fill="hsl(278, 52%, 74%)" stroke="#ffffff" stroke-width="0.55"/>
<path d="M 314.1 388.7 A 86.7 86.7 0 0 1 316.3 377.6 L 257.7 361.9 A 147.3 147.3 0 0 0 253.9 380.8 Z" fill="hsl(278, 59%, 66%)" stroke="#ffffff" stroke-width="0.55"/>
<path d="M 253.9 380.8 A 147.3 147.3 0 0 1 257.7 361.9 L 199.1 346.2 A 208.0 208.0 0 0 0 193.8 372.9 Z" fill="hsl(278, 66%, 58%)" stroke="#ffffff" stroke-width="0.55"/>
<path d="M 193.8 372.9 A 208.0 208.0 0 0 1 199.1 346.2 L 140.5 330.5 A 268.7 268.7 0 0 0 133.6 364.9 Z" fill="hsl(278, 73%, 50%)" stroke="#ffffff" stroke-width="0.55"/>
<path d="M 133.6 364.9 A 268.7 268.7 0 0 1 140.5 330.5 L 81.9 314.8 A 329.3 329.3 0 0 0 73.5 357.0 Z" fill="hsl(278, 80%, 42%)" stroke="#ffffff" stroke-width="0.55"/>
<path d="M 73.5 357.0 A 329.3 329.3 0 0 1 81.9 314.8 L 23.3 299.1 A 390.0 390.0 0 0 0 13.3 349.1 Z" fill="hsl(278, 87%, 34%)" stroke="#ffffff" stroke-width="0.55"/>
<path d="M 374.9 393.3 A 26.0 26.0 0 0 1 376.0 390.1 L 319.9 366.8 A 86.7 86.7 0 0 0 316.3 377.6 Z" fill="hsl(285, 52%, 74%)" stroke="#ffffff" stroke-width="0.55"/>
<path d="M 316.3 377.6 A 86.7 86.7 0 0 1 319.9 366.8 L 263.9 343.6 A 147.3 147.3 0 0 0 257.7 361.9 Z" fill="hsl(285, 59%, 66%)" stroke="#ffffff" stroke-width="0.55"/>
<path d="M 257.7 361.9 A 147.3 147.3 0 0 1 263.9 343.6 L 207.8 320.4 A 208.0 208.0 0 0 0 199.1 346.2 Z" fill="hsl(285, 66%, 58%)" stroke="#ffffff" stroke-width="0.55"/>
<path d="M 199.1 346.2 A 208.0 208.0 0 0 1 207.8 320.4 L 151.8 297.2 A 268.7 268.7 0 0 0 140.5 330.5 Z" fill="hsl(285, 73%, 50%)" stroke="#ffffff" stroke-width="0.55"/>
<path d="M 140.5 330.5 A 268.7 268.7 0 0 1 151.8 297.2 L 95.7 274.0 A 329.3 329.3 0 0 0 81.9 314.8 Z" fill="hsl(285, 80%, 42%)" stroke="#ffffff" stroke-width="0.55"/>
<path d="M 81.9 314.8 A 329.3 329.3 0 0 1 95.7 274.0 L 39.7 250.8 A 390.0 390.0 0 0 0 23.3 299.1 Z" fill="hsl(285, 87%, 34%)" stroke="#ffffff" stroke-width="0.55"/>
<path d="M 376.0 390.1 A 26.0 26.0 0 0 1 377.5 387.0 L 324.9 356.7 A 86.7 86.7 0 0 0 319.9 366.8 Z" fill="hsl(292, 52%, 74%)" stroke="#ffffff" stroke-width="0.55"/>
<path d="M 319.9 366.8 A 86.7 86.7 0 0 1 324.9 356.7 L 272.4 326.3 A 147.3 147.3 0 0 0 263.9 343.6 Z" fill="hsl(292, 59%, 66%)" stroke="#ffffff" stroke-width="0.55"/>
<path d="M 263.9 343.6 A 147.3 147.3 0 0 1 272.4 326.3 L 219.9 296.0 A 208.0 208.0 0 0 0 207.8 320.4 Z" fill="hsl(292, 66%, 58%)" stroke="#ffffff" stroke-width="0.55"/>
<path d="M 207.8 320.4 A 208.0 208.0 0 0 1 219.9 296.0 L 167.3 265.7 A 268.7 268.7 0 0 0 151.8 297.2 Z" fill="hsl(292, 73%, 50%)" stroke="#ffffff" stroke-width="0.55"/>
<path d="M 151.8 297.2 A 268.7 268.7 0 0 1 167.3 265.7 L 114.8 235.3 A 329.3 329.3 0 0 0 95.7 274.0 Z" fill="hsl(292, 80%, 42%)" stroke="#ffffff" stroke-width="0.55"/>
<path d="M 95.7 274.0 A 329.3 329.3 0 0 1 114.8 235.3 L 62.3 205.0 A 390.0 390.0 0 0 0 39.7 250.8 Z" fill="hsl(292, 87%, 34%)" stroke="#ffffff" stroke-width="0.55"/>
<path d="M 377.5 387.0 A 26.0 26.0 0 0 1 379.4 384.2 L 331.2 347.2 A 86.7 86.7 0 0 0 324.9 356.7 Z" fill="hsl(300, 52%, 74%)" stroke="#ffffff" stroke-width="0.55"/>
<path d="M 324.9 356.7 A 86.7 86.7 0 0 1 331.2 347.2 L 283.1 310.3 A 147.3 147.3 0 0 0 272.4 326.3 Z" fill="hsl(300, 59%, 66%)" stroke="#ffffff" stroke-width="0.55"/>
<path d="M 272.4 326.3 A 147.3 147.3 0 0 1 283.1 310.3 L 235.0 273.4 A 208.0 208.0 0 0 0 219.9 296.0 Z" fill="hsl(300, 66%, 58%)" stroke="#ffffff" stroke-width="0.55"/>
<path d="M 219.9 296.0 A 208.0 208.0 0 0 1 235.0 273.4 L 186.9 236.4 A 268.7 268.7 0 0 0 167.3 265.7 Z" fill="hsl(300, 73%, 50%)" stroke="#ffffff" stroke-width="0.55"/>
<path d="M 167.3 265.7 A 268.7 268.7 0 0 1 186.9 236.4 L 138.7 199.5 A 329.3 329.3 0 0 0 114.8 235.3 Z" fill="hsl(300, 80%, 42%)" stroke="#ffffff" stroke-width="0.55"/>
<path d="M 114.8 235.3 A 329.3 329.3 0 0 1 138.7 199.5 L 90.6 162.6 A 390.0 390.0 0 0 0 62.3 205.0 Z" fill="hsl(300, 87%, 34%)" stroke="#ffffff" stroke-width="0.55"/>
<path d="M 379.4 384.2 A 26.0 26.0 0 0 1 381.6 381.6 L 338.7 338.7 A 86.7 86.7 0 0 0 331.2 347.2 Z" fill="hsl(308, 52%, 74%)" stroke="#ffffff" stroke-width="0.55"/>
<path d="M 331.2 347.2 A 86.7 86.7 0 0 1 338.7 338.7 L 295.8 295.8 A 147.3 147.3 0 0 0 283.1 310.3 Z" fill="hsl(308, 59%, 66%)" stroke="#ffffff" stroke-width="0.55"/>
<path d="M 283.1 310.3 A 147.3 147.3 0 0 1 295.8 295.8 L 252.9 252.9 A 208.0 208.0 0 0 0 235.0 273.4 Z" fill="hsl(308, 66%, 58%)" stroke="#ffffff" stroke-width="0.55"/>
<path d="M 235.0 273.4 A 208.0 208.0 0 0 1 252.9 252.9 L 210.0 210.0 A 268.7 268.7 0 0 0 186.9 236.4 Z" fill="hsl(308, 73%, 50%)" stroke="#ffffff" stroke-width="0.55"/>
<path d="M 186.9 236.4 A 268.7 268.7 0 0 1 210.0 210.0 L 167.1 167.1 A 329.3 329.3 0 0 0 138.7 199.5 Z" fill="hsl(308, 80%, 42%)" stroke="#ffffff" stroke-width="0.55"/>
<path d="M 138.7 199.5 A 329.3 329.3 0 0 1 167.1 167.1 L 124.2 124.2 A 390.0 390.0 0 0 0 90.6 162.6 Z" fill="hsl(308, 87%, 34%)" stroke="#ffffff" stroke-width="0.55"/>
<path d="M 381.6 381.6 A 26.0 26.0 0 0 1 384.2 379.4 L 347.2 331.2 A 86.7 86.7 0 0 0 338.7 338.7 Z" fill="hsl(315, 52%, 74%)" stroke="#ffffff" stroke-width="0.55"/>
<path d="M 338.7 338.7 A 86.7 86.7 0 0 1 347.2 331.2 L 310.3 283.1 A 147.3 147.3 0 0 0 295.8 295.8 Z" fill="hsl(315, 59%, 66%)" stroke="#ffffff" stroke-width="0.55"/>
<path d="M 295.8 295.8 A 147.3 147.3 0 0 1 310.3 283.1 L 273.4 235.0 A 208.0 208.0 0 0 0 252.9 252.9 Z" fill="hsl(315, 66%, 58%)" stroke="#ffffff" stroke-width="0.55"/>
<path d="M 252.9 252.9 A 208.0 208.0 0 0 1 273.4 235.0 L 236.4 186.9 A 268.7 268.7 0 0 0 210.0 210.0 Z" fill="hsl(315, 73%, 50%)" stroke="#ffffff" stroke-width="0.55"/>
<path d="M 210.0 210.0 A 268.7 268.7 0 0 1 236.4 186.9 L 199.5 138.7 A 329.3 329.3 0 0 0 167.1 167.1 Z" fill="hsl(315, 80%, 42%)" stroke="#ffffff" stroke-width="0.55"/>
<path d="M 167.1 167.1 A 329.3 329.3 0 0 1 199.5 138.7 L 162.6 90.6 A 390.0 390.0 0 0 0 124.2 124.2 Z" fill="hsl(315, 87%, 34%)" stroke="#ffffff" stroke-width="0.55"/>
<path d="M 384.2 379.4 A 26.0 26.0 0 0 1 387.0 377.5 L 356.7 324.9 A 86.7 86.7 0 0 0 347.2 331.2 Z" fill="hsl(322, 52%, 74%)" stroke="#ffffff" stroke-width="0.55"/>
<path d="M 347.2 331.2 A 86.7 86.7 0 0 1 356.7 324.9 L 326.3 272.4 A 147.3 147.3 0 0 0 310.3 283.1 Z" fill="hsl(322, 59%, 66%)" stroke="#ffffff" stroke-width="0.55"/>
<path d="M 310.3 283.1 A 147.3 147.3 0 0 1 326.3 272.4 L 296.0 219.9 A 208.0 208.0 0 0 0 273.4 235.0 Z" fill="hsl(322, 66%, 58%)" stroke="#ffffff" stroke-width="0.55"/>
<path d="M 273.4 235.0 A 208.0 208.0 0 0 1 296.0 219.9 L 265.7 167.3 A 268.7 268.7 0 0 0 236.4 186.9 Z" fill="hsl(322, 73%, 50%)" stroke="#ffffff" stroke-width="0.55"/>
<path d="M 236.4 186.9 A 268.7 268.7 0 0 1 265.7 167.3 L 235.3 114.8 A 329.3 329.3 0 0 0 199.5 138.7 Z" fill="hsl(322, 80%, 42%)" stroke="#ffffff" stroke-width="0.55"/>
<path d="M 199.5 138.7 A 329.3 329.3 0 0 1 235.3 114.8 L 205.0 62.3 A 390.0 390.0 0 0 0 162.6 90.6 Z" fill="hsl(322, 87%, 34%)" stroke="#ffffff" stroke-width="0.55"/>
<path d="M 387.0 377.5 A 26.0 26.0 0 0 1 390.1 376.0 L 366.8 319.9 A 86.7 86.7 0 0 0 356.7 324.9 Z" fill="hsl(330, 52%, 74%)" stroke="#ffffff" stroke-width="0.55"/>
<path d="M 356.7 324.9 A 86.7 86.7 0 0 1 366.8 319.9 L 343.6 263.9 A 147.3 147.3 0 0 0 326.3 272.4 Z" fill="hsl(330, 59%, 66%)" stroke="#ffffff" stroke-width="0.55"/>
<path d="M 326.3 272.4 A 147.3 147.3 0 0 1 343.6 263.9 L 320.4 207.8 A 208.0 208.0 0 0 0 296.0 219.9 Z" fill="hsl(330, 66%, 58%)" stroke="#ffffff" stroke-width="0.55"/>
<path d="M 296.0 219.9 A 208.0 208.0 0 0 1 320.4 207.8 L 297.2 151.8 A 268.7 268.7 0 0 0 265.7 167.3 Z" fill="hsl(330, 73%, 50%)" stroke="#ffffff" stroke-width="0.55"/>
<path d="M 265.7 167.3 A 268.7 268.7 0 0 1 297.2 151.8 L 274.0 95.7 A 329.3 329.3 0 0 0 235.3 114.8 Z" fill="hsl(330, 80%, 42%)" stroke="#ffffff" stroke-width="0.55"/>
<path d="M 235.3 114.8 A 329.3 329.3 0 0 1 274.0 95.7 L 250.8 39.7 A 390.0 390.0 0 0 0 205.0 62.3 Z" fill="hsl(330, 87%, 34%)" stroke="#ffffff" stroke-width="0.55"/>
<path d="M 390.1 376.0 A 26.0 26.0 0 0 1 393.3 374.9 L 377.6 316.3 A 86.7 86.7 0 0 0 366.8 319.9 Z" fill="hsl(338, 52%, 74%)" stroke="#ffffff" stroke-width="0.55"/>
<path d="M 366.8 319.9 A 86.7 86.7 0 0 1 377.6 316.3 L 361.9 257.7 A 147.3 147.3 0 0 0 343.6 263.9 Z" fill="hsl(338, 59%, 66%)" stroke="#ffffff" stroke-width="0.55"/>
<path d="M 343.6 263.9 A 147.3 147.3 0 0 1 361.9 257.7 L 346.2 199.1 A 208.0 208.0 0 0 0 320.4 207.8 Z" fill="hsl(338, 66%, 58%)" stroke="#ffffff" stroke-width="0.55"/>
<path d="M 320.4 207.8 A 208.0 208.0 0 0 1 346.2 199.1 L 330.5 140.5 A 268.7 268.7 0 0 0 297.2 151.8 Z" fill="hsl(338, 73%, 50%)" stroke="#ffffff" stroke-width="0.55"/>
<path d="M 297.2 151.8 A 268.7 268.7 0 0 1 330.5 140.5 L 314.8 81.9 A 329.3 329.3 0 0 0 274.0 95.7 Z" fill="hsl(338, 80%, 42%)" stroke="#ffffff" stroke-width="0.55"/>
<path d="M 274.0 95.7 A 329.3 329.3 0 0 1 314.8 81.9 L 299.1 23.3 A 390.0 390.0 0 0 0 250.8 39.7 Z" fill="hsl(338, 87%, 34%)" stroke="#ffffff" stroke-width="0.55"/>
<path d="M 393.3 374.9 A 26.0 26.0 0 0 1 396.6 374.2 L 388.7 314.1 A 86.7 86.7 0 0 0 377.6 316.3 Z" fill="hsl(345, 52%, 74%)" stroke="#ffffff" stroke-width="0.55"/>
<path d="M 377.6 316.3 A 86.7 86.7 0 0 1 388.7 314.1 L 380.8 253.9 A 147.3 147.3 0 0 0 361.9 257.7 Z" fill="hsl(345, 59%, 66%)" stroke="#ffffff" stroke-width="0.55"/>
<path d="M 361.9 257.7 A 147.3 147.3 0 0 1 380.8 253.9 L 372.9 193.8 A 208.0 208.0 0 0 0 346.2 199.1 Z" fill="hsl(345, 66%, 58%)" stroke="#ffffff" stroke-width="0.55"/>
<path d="M 346.2 199.1 A 208.0 208.0 0 0 1 372.9 193.8 L 364.9 133.6 A 268.7 268.7 0 0 0 330.5 140.5 Z" fill="hsl(345, 73%, 50%)" stroke="#ffffff" stroke-width="0.55"/>
<path d="M 330.5 140.5 A 268.7 268.7 0 0 1 364.9 133.6 L 357.0 73.5 A 329.3 329.3 0 0 0 314.8 81.9 Z" fill="hsl(345, 80%, 42%)" stroke="#ffffff" stroke-width="0.55"/>
<path d="M 314.8 81.9 A 329.3 329.3 0 0 1 357.0 73.5 L 349.1 13.3 A 390.0 390.0 0 0 0 299.1 23.3 Z" fill="hsl(345, 87%, 34%)" stroke="#ffffff" stroke-width="0.55"/>
<path d="M 396.6 374.2 A 26.0 26.0 0 0 1 400.0 374.0 L 400.0 313.3 A 86.7 86.7 0 0 0 388.7 314.1 Z" fill="hsl(352, 52%, 74%)" stroke="#ffffff" stroke-width="0.55"/>
<path d="M 388.7 314.1 A 86.7 86.7 0 0 1 400.0 313.3 L 400.0 252.7 A 147.3 147.3 0 0 0 380.8 253.9 Z" fill="hsl(352, 59%, 66%)" stroke="#ffffff" stroke-width="0.55"/>
<path d="M 380.8 253.9 A 147.3 147.3 0 0 1 400.0 252.7 L 400.0 192.0 A 208.0 208.0 0 0 0 372.9 193.8 Z" fill="hsl(352, 66%, 58%)" stroke="#ffffff" stroke-width="0.55"/>
<path d="M 372.9 193.8 A 208.0 208.0 0 0 1 400.0 192.0 L 400.0 131.3 A 268.7 268.7 0 0 0 364.9 133.6 Z" fill="hsl(352, 73%, 50%)" stroke="#ffffff" stroke-width="0.55"/>
<path d="M 364.9 133.6 A 268.7 268.7 0 0 1 400.0 131.3 L 400.0 70.7 A 329.3 329.3 0 0 0 357.0 73.5 Z" fill="hsl(352, 80%, 42%)" stroke="#ffffff" stroke-width="0.55"/>
<path d="M 357.0 73.5 A 329.3 329.3 0 0 1 400.0 70.7 L 400.0 10.0 A 390.0 390.0 0 0 0 349.1 13.3 Z" fill="hsl(352, 87%, 34%)" stroke="#ffffff" stroke-width="0.55"/>
<g transform="translate(400,400) rotate(20)">
<rect x="52" y="-16" width="118" height="32" rx="2" fill="#8a7768" stroke="#fff" stroke-width="1.5"/>
<circle cx="52" cy="0" r="3" fill="#c0c0c0"/>
</g>
</svg>