<svg xmlns="http://www.w3.org/2000/svg" viewBox="0 0 340 260" aria-hidden="true">
  <circle cx="170" cy="110" r="28" fill="#7a3b2e" opacity="0.15"/>
  <circle cx="170" cy="110" r="14" fill="#7a3b2e"/>
  <text x="170" y="114" text-anchor="middle" font-size="9" fill="#fff" font-weight="600">PM</text>
  <!-- five spokes -->
  <line x1="170" y1="110" x2="60" y2="45" stroke="#d4cec4" stroke-width="2"/>
  <line x1="170" y1="110" x2="280" y2="45" stroke="#d4cec4" stroke-width="2"/>
  <line x1="170" y1="110" x2="310" y2="130" stroke="#d4cec4" stroke-width="2"/>
  <line x1="170" y1="110" x2="250" y2="220" stroke="#d4cec4" stroke-width="2"/>
  <line x1="170" y1="110" x2="70" y2="210" stroke="#d4cec4" stroke-width="2"/>
  <!-- nodes -->
  <g><rect x="28" y="24" width="64" height="36" rx="4" fill="#f6f3ed" stroke="#5c4d3c"/><text x="60" y="46" text-anchor="middle" font-size="9" fill="#4a4540">Planning</text></g>
  <g><rect x="248" y="24" width="64" height="36" rx="4" fill="#f6f3ed" stroke="#4a6670"/><text x="280" y="46" text-anchor="middle" font-size="9" fill="#4a4540">Delivery</text></g>
  <g><rect x="278" y="112" width="58" height="36" rx="4" fill="#f6f3ed" stroke="#6b5344"/><text x="307" y="134" text-anchor="middle" font-size="9" fill="#4a4540">Reporting</text></g>
  <g><rect x="218" y="204" width="72" height="36" rx="4" fill="#f6f3ed" stroke="#5a4a6e"/><text x="254" y="226" text-anchor="middle" font-size="9" fill="#4a4540">Comms</text></g>
  <g><rect x="38" y="196" width="64" height="36" rx="4" fill="#f6f3ed" stroke="#8b6914"/><text x="70" y="218" text-anchor="middle" font-size="9" fill="#4a4540">Creativity</text></g>
  <path d="M55 200 Q170 170 285 50" fill="none" stroke="#7a3b2e" stroke-width="1.5" opacity="0.35" stroke-dasharray="6 4"/>
  <text x="170" y="252" text-anchor="middle" font-size="10" fill="#6b6560">Woven in  not bolted on</text>
</svg>
