<svg xmlns="http://www.w3.org/2000/svg" viewBox="0 0 340 170" aria-hidden="true">
  <!-- messy notes -->
  <rect x="16" y="20" width="100" height="110" rx="4" fill="#fff" stroke="#d4cec4"/>
  <line x1="28" y1="38" x2="100" y2="38" stroke="#d4cec4" stroke-width="3"/>
  <line x1="28" y1="52" x2="92" y2="52" stroke="#d4cec4"/>
  <line x1="28" y1="66" x2="104" y2="66" stroke="#d4cec4"/>
  <line x1="28" y1="80" x2="80" y2="80" stroke="#d4cec4"/>
  <line x1="28" y1="94" x2="96" y2="94" stroke="#d4cec4"/>
  <text x="66" y="148" text-anchor="middle" font-size="9" fill="#6b6560">Raw notes</text>
  <path d="M128 75 L168 75" stroke="#7a3b2e" stroke-width="2"/>
  <polygon points="168,70 178,75 168,80" fill="#7a3b2e"/>
  <!-- structured table -->
  <rect x="188" y="24" width="136" height="102" rx="4" fill="#f6f3ed" stroke="#7a3b2e" stroke-width="1.5"/>
  <rect x="188" y="24" width="136" height="22" fill="#7a3b2e" opacity="0.12"/>
  <text x="200" y="38" font-size="8" font-weight="600" fill="#2a2724">Action</text>
  <text x="268" y="38" font-size="8" font-weight="600" fill="#2a2724">Owner</text>
  <line x1="188" y1="46" x2="324" y2="46" stroke="#d4cec4"/>
  <line x1="256" y1="46" x2="256" y2="126" stroke="#d4cec4"/>
  <line x1="188" y1="62" x2="324" y2="62" stroke="#d4cec4"/>
  <line x1="188" y1="78" x2="324" y2="78" stroke="#d4cec4"/>
  <line x1="188" y1="94" x2="324" y2="94" stroke="#d4cec4"/>
  <text x="256" y="158" text-anchor="middle" font-size="9" fill="#6b6560">Owners + next steps</text>
</svg>
